<svg width="116" height="44" viewBox="0 0 116 44" fill="none" xmlns="http://www.w3.org/2000/svg">
<path d="M1.52344 0.4375C2.67969 0.1875 3.77344 0.0625 4.80469 0.0625C5.83594 0.0625 6.75 0.101562 7.54688 0.179688C8.35938 0.257812 9.17188 0.40625 9.98438 0.625C11.7031 1.10938 12.7656 1.76562 13.1719 2.59375C13.2812 2.76562 13.3359 2.96875 13.3359 3.20312C13.3359 3.89062 12.7344 4.63281 11.5312 5.42969C10.7344 5.96094 9.59375 6.5 8.10938 7.04688C11.75 7.25 14.2188 7.78125 15.5156 8.64062C16.2344 9.09375 16.5938 9.625 16.5938 10.2344C16.5938 11.0781 16 11.9531 14.8125 12.8594C13.5156 13.8281 11.8594 14.6328 9.84375 15.2734C7.98438 15.8672 6.25781 16.1641 4.66406 16.1641C3.44531 16.1641 2.39844 15.9844 1.52344 15.625C1.49219 14.625 1.45312 13.5938 1.40625 12.5312C1.28125 10.1719 1.21875 8.1875 1.21875 6.57812C1.21875 4.95312 1.27344 3.26562 1.38281 1.51562C1.21094 1.51562 1.05469 1.5 0.914062 1.46875C0.773438 1.42188 0.703125 1.26562 0.703125 1C0.703125 0.625 0.976562 0.4375 1.52344 0.4375ZM3.63281 14.4531C6.14844 14.3125 8.21094 14.0156 9.82031 13.5625C11.4297 13.0938 12.5859 12.5938 13.2891 12.0625C14.0078 11.5156 14.3672 10.9922 14.3672 10.4922C14.3672 9.83594 13.8984 9.3125 12.9609 8.92188C11.9453 8.51562 10.5938 8.3125 8.90625 8.3125C7.23438 8.3125 5.28906 8.53906 3.07031 8.99219L3.63281 14.4531ZM5.8125 1.58594H5.22656C3.94531 1.58594 3.22656 1.71875 3.07031 1.98438L2.83594 6.69531C4.24219 6.69531 5.95312 6.35938 7.96875 5.6875C9.28125 5.23438 10.2422 4.73438 10.8516 4.1875C11.1641 3.90625 11.3203 3.61719 11.3203 3.32031C11.3203 3.02344 11.2031 2.78125 10.9688 2.59375C10.75 2.39062 10.4609 2.22656 10.1016 2.10156C9.75781 1.97656 9.36719 1.88281 8.92969 1.82031C8.50781 1.74219 8.09375 1.6875 7.6875 1.65625C7.0625 1.60938 6.4375 1.58594 5.8125 1.58594ZM26.9062 12.1094C25.7344 13.9531 24.1719 15.0938 22.2188 15.5312C21.7656 15.625 21.3516 15.6719 20.9766 15.6719C20.6172 15.6719 20.3125 15.6719 20.0625 15.6719C19.8281 15.6562 19.5625 15.6172 19.2656 15.5547C18.9688 15.4922 18.6953 15.3906 18.4453 15.25C17.8672 14.9219 17.5781 14.4609 17.5781 13.8672C17.5156 13.5859 17.4844 13.2734 17.4844 12.9297C17.4844 12.5703 17.5625 12.1016 17.7188 11.5234C17.875 10.9453 18.1562 10.3203 18.5625 9.64844C18.9844 8.97656 19.4922 8.35938 20.0859 7.79688C21.3203 6.60938 22.6562 5.84375 24.0938 5.5C24.5156 5.40625 24.8984 5.35938 25.2422 5.35938C25.6016 5.35938 25.9219 5.38281 26.2031 5.42969C27.1094 5.42969 27.7188 6.04688 28.0312 7.28125C28.2344 8.0625 28.3516 9.15625 28.3828 10.5625C28.4297 11.9531 28.4688 13.0312 28.5 13.7969C28.5469 14.5469 28.6484 15.2344 28.8047 15.8594H27.4219C27.3594 15.4375 27.3125 15.0625 27.2812 14.7344C27.25 14.4062 27.2188 14.1016 27.1875 13.8203C27.1094 13.1641 27.0156 12.5938 26.9062 12.1094ZM26.8125 8.47656C26.8125 7.57031 26.3672 7.11719 25.4766 7.11719C25.3672 7.10156 25.2578 7.09375 25.1484 7.09375C24.0078 7.09375 22.8047 7.64062 21.5391 8.73438C20.9453 9.23438 20.4375 9.79688 20.0156 10.4219C19.3906 11.3125 19.0781 12.1094 19.0781 12.8125C19.0781 13.7344 19.6094 14.2812 20.6719 14.4531C22.0781 14.4219 23.4219 13.7812 24.7031 12.5312C25.25 11.9844 25.7031 11.3906 26.0625 10.75C26.5625 9.89062 26.8125 9.13281 26.8125 8.47656ZM40.7578 4.49219L38.6719 4.44531C38.125 4.44531 37.4922 4.5 36.7734 4.60938C36.7422 5.21875 36.6797 6.00781 36.5859 6.97656C36.2578 10.4141 36.0938 12.6484 36.0938 13.6797C36.0938 14.6953 36.1094 15.4141 36.1406 15.8359L33.9375 16L34.6641 4.42188L29.6719 4.14062C29.5469 4.14062 29.4453 4.03906 29.3672 3.83594C29.3047 3.63281 29.2734 3.44531 29.2734 3.27344C29.2734 3.10156 29.3438 2.91406 29.4844 2.71094C29.625 2.50781 29.7891 2.40625 29.9766 2.40625C31.1172 2.45312 32.2656 2.53125 33.4219 2.64062C35.5625 2.82812 37.3828 2.92188 38.8828 2.92188L40.3359 2.875C41.4766 2.84375 42.6094 2.71875 43.7344 2.5C43.9844 2.54688 44.1406 2.9375 44.2031 3.67188C44.2188 3.82812 44.2266 3.95312 44.2266 4.04688C43.1953 4.34375 42.0391 4.49219 40.7578 4.49219ZM45.4453 11.5469C45.4453 9.70312 46.2422 8.21875 47.8359 7.09375C49.1016 6.20312 50.625 5.66406 52.4062 5.47656C52.5 5.47656 52.7188 5.47656 53.0625 5.47656C53.4062 5.47656 53.8672 5.57812 54.4453 5.78125C55.7266 6.21875 56.6016 6.99219 57.0703 8.10156C57.2578 8.53906 57.3516 8.91406 57.3516 9.22656C57.3516 9.52344 57.3438 9.73438 57.3281 9.85938C57.3281 11.8125 56.5859 13.3516 55.1016 14.4766C53.7266 15.5078 52.0078 16.0234 49.9453 16.0234C48.4609 16.0234 47.3359 15.6797 46.5703 14.9922C45.8203 14.3047 45.4453 13.1562 45.4453 11.5469ZM47.0625 12.1094C47.0625 13.0781 47.3203 13.7344 47.8359 14.0781C48.2266 14.3281 48.8828 14.4531 49.8047 14.4531C50.7266 14.4531 51.5391 14.3828 52.2422 14.2422C52.9453 14.1016 53.5703 13.8594 54.1172 13.5156C55.2891 12.7656 55.875 11.6016 55.875 10.0234C55.875 9.08594 55.625 8.32031 55.125 7.72656C54.5781 7.08594 53.8594 6.76562 52.9688 6.76562C52.3594 6.875 51.7422 6.99219 51.1172 7.11719C50.5078 7.24219 49.9297 7.48438 49.3828 7.84375C48.1953 8.60938 47.4219 10.0312 47.0625 12.1094ZM58.5703 6.92969C58.5391 6.85156 58.5234 6.76562 58.5234 6.67188C58.5234 6.5625 58.5625 6.42188 58.6406 6.25C58.7188 6.07812 58.8281 5.92969 58.9688 5.80469C59.125 5.67969 59.2891 5.625 59.4609 5.64062C59.6484 5.64062 59.7969 5.75 59.9062 5.96875L63.8438 13.2812C63.9688 13.0938 64.1641 12.75 64.4297 12.25C64.7109 11.7344 65.0234 11.1562 65.3672 10.5156C65.7266 9.875 66.0938 9.21094 66.4688 8.52344C66.8594 7.82031 67.2188 7.17969 67.5469 6.60156C68.2969 5.27344 68.7422 4.60938 68.8828 4.60938C69.2109 4.60938 69.4453 4.73438 69.5859 4.98438C69.7422 5.21875 69.8203 5.39844 69.8203 5.52344C69.8203 5.64844 69.8203 5.73438 69.8203 5.78125C68.9453 7.6875 68.1328 9.44531 67.3828 11.0547C66.6484 12.6641 66.1562 13.7109 65.9062 14.1953C65.6719 14.6641 65.4609 15.0391 65.2734 15.3203C64.9453 15.8047 64.625 16.0469 64.3125 16.0469C64 16.0469 63.6406 15.8047 63.2344 15.3203C62.8281 14.8203 62.3672 14.1562 61.8516 13.3281C60.9453 11.8281 59.8516 9.69531 58.5703 6.92969ZM71.4697 33.2207C72.5439 33.2207 73.0811 33.4941 73.0811 34.041C73.0811 34.4512 72.7832 34.9297 72.1875 35.4766C71.2988 36.2871 70.1025 36.9365 68.5986 37.4248C68.5303 37.4248 68.4521 37.3564 68.3643 37.2197C68.2861 37.083 68.2227 36.9805 68.1738 36.9121C68.1348 36.834 68.1055 36.7852 68.0859 36.7656C69.209 36.3945 70.1318 35.9453 70.8545 35.418C71.3428 35.0664 71.5869 34.7783 71.5869 34.5537C71.5869 34.3291 71.2988 34.2168 70.7227 34.2168C70.1465 34.2168 69.3018 34.3535 68.1885 34.627C67.6807 34.6074 67.2412 34.4268 66.8701 34.085C66.5479 33.7822 66.3867 33.4795 66.3867 33.1768C66.3867 32.8643 66.4746 32.5811 66.6504 32.3271C66.8262 32.0635 67.0605 31.8193 67.3535 31.5947C67.6465 31.3701 67.9883 31.165 68.3789 30.9795C69.3359 30.5205 70.3271 30.291 71.3525 30.291C71.6553 30.291 71.9482 30.3203 72.2314 30.3789C72.4658 30.3789 72.6025 30.4814 72.6416 30.6865C72.6807 30.8916 72.7002 31.2285 72.7002 31.6973C72.124 31.4336 71.4746 31.3018 70.752 31.3018C69.8535 31.3018 69.1113 31.4824 68.5254 31.8438C67.9199 32.1953 67.6074 32.6543 67.5879 33.2207C67.5879 33.4941 67.7881 33.6309 68.1885 33.6309L69.2578 33.5137C70.1758 33.3184 70.9131 33.2207 71.4697 33.2207ZM77.0801 42.5225C76.875 42.9814 76.6309 43.2109 76.3477 43.2109C76.2109 43.2109 76.1084 43.1475 76.04 43.0205C75.9814 42.9033 75.9814 42.7617 76.04 42.5957C76.2549 41.6875 76.5625 40.6523 76.9629 39.4902C77.373 38.3281 77.6465 37.5469 77.7832 37.1465C77.4414 36.8047 76.9043 36.1211 76.1719 35.0957C74.668 32.9863 73.916 31.8291 73.916 31.624C73.916 31.6143 73.9209 31.6045 73.9307 31.5947L74.4873 31.0381C75.2588 31.751 76.2646 32.9619 77.5049 34.6709C77.8174 35.1006 78.0664 35.4619 78.252 35.7549C78.457 35.3447 78.6182 34.9932 78.7354 34.7002C78.8525 34.3975 78.9453 34.1582 79.0137 33.9824C79.0918 33.7969 79.1943 33.5527 79.3213 33.25C79.6533 32.4395 80.1123 31.4092 80.6982 30.1592C80.7861 30.1201 80.8789 30.1006 80.9766 30.1006C81.2207 30.1006 81.3965 30.1641 81.5039 30.291C81.543 30.3398 81.5625 30.3984 81.5625 30.4668C81.5625 30.5254 81.5527 30.584 81.5332 30.6426L77.0801 42.5225ZM87.2314 33.2207C88.3057 33.2207 88.8428 33.4941 88.8428 34.041C88.8428 34.4512 88.5449 34.9297 87.9492 35.4766C87.0605 36.2871 85.8643 36.9365 84.3604 37.4248C84.292 37.4248 84.2139 37.3564 84.126 37.2197C84.0479 37.083 83.9844 36.9805 83.9355 36.9121C83.8965 36.834 83.8672 36.7852 83.8477 36.7656C84.9707 36.3945 85.8936 35.9453 86.6162 35.418C87.1045 35.0664 87.3486 34.7783 87.3486 34.5537C87.3486 34.3291 87.0605 34.2168 86.4844 34.2168C85.9082 34.2168 85.0635 34.3535 83.9502 34.627C83.4424 34.6074 83.0029 34.4268 82.6318 34.085C82.3096 33.7822 82.1484 33.4795 82.1484 33.1768C82.1484 32.8643 82.2363 32.5811 82.4121 32.3271C82.5879 32.0635 82.8223 31.8193 83.1152 31.5947C83.4082 31.3701 83.75 31.165 84.1406 30.9795C85.0977 30.5205 86.0889 30.291 87.1143 30.291C87.417 30.291 87.71 30.3203 87.9932 30.3789C88.2275 30.3789 88.3643 30.4814 88.4033 30.6865C88.4424 30.8916 88.4619 31.2285 88.4619 31.6973C87.8857 31.4336 87.2363 31.3018 86.5137 31.3018C85.6152 31.3018 84.873 31.4824 84.2871 31.8438C83.6816 32.1953 83.3691 32.6543 83.3496 33.2207C83.3496 33.4941 83.5498 33.6309 83.9502 33.6309L85.0195 33.5137C85.9375 33.3184 86.6748 33.2207 87.2314 33.2207ZM91.9629 35.5938L91.9922 33.25C91.9922 32.8789 91.958 32.5615 91.8896 32.2979H89.6191L89.5898 31.2871H91.7871V27.5078C91.8164 27.4199 91.875 27.332 91.9629 27.2441C92.0996 27.1074 92.2119 27.0391 92.2998 27.0391C92.3975 27.0391 92.4805 27.0488 92.5488 27.0684C92.6172 27.0879 92.6904 27.1562 92.7686 27.2734C92.9248 27.918 93.0029 28.8896 93.0029 30.1885C93.0029 30.5107 93.0176 30.8281 93.0469 31.1406C93.3594 31.1016 93.6719 31.082 93.9844 31.082C93.9844 31.082 94.2383 31.082 94.7461 31.082C94.9316 31.082 95.1025 31.0723 95.2588 31.0527L95.2148 32.1074L93.0762 32.0488L93.1494 37.1025C92.9736 37.1807 92.8223 37.2197 92.6953 37.2197C92.207 37.2197 91.9629 36.6777 91.9629 35.5938ZM98.8037 35.9746C99.6631 35.9746 100.957 35.584 102.686 34.8027C102.793 34.8027 102.881 34.8418 102.949 34.9199C103.018 34.9883 103.052 35.0713 103.052 35.1689C102.661 35.833 101.914 36.3506 100.811 36.7217C99.707 37.0928 98.6768 37.1562 97.7197 36.9121C96.6357 36.6289 95.9766 36.0186 95.7422 35.0811C95.7227 34.8955 95.7129 34.6465 95.7129 34.334C95.7129 34.0215 95.791 33.6113 95.9473 33.1035C96.1133 32.5859 96.3916 32.0977 96.7822 31.6387C97.1729 31.1797 97.6318 30.8184 98.1592 30.5547C98.6865 30.291 99.248 30.1592 99.8438 30.1592C100.41 30.1592 101.045 30.3545 101.748 30.7451C102.08 30.9307 102.344 31.1406 102.539 31.375C102.734 31.6094 102.832 31.8486 102.832 32.0928C102.832 32.1611 102.827 32.2295 102.817 32.2979C102.798 32.8936 102.51 33.2695 101.953 33.4258C101.709 33.4941 101.426 33.5283 101.104 33.5283L98.9941 33.4404C98.291 33.4404 97.7539 33.5918 97.3828 33.8945C97.168 34.0605 97.0166 34.3096 96.9287 34.6416C97.1729 35.5303 97.7979 35.9746 98.8037 35.9746ZM101.411 31.4482C101.196 31.292 100.972 31.1797 100.737 31.1113C100.503 31.043 100.308 31.0088 100.151 31.0088C99.9951 31.0088 99.7412 31.0625 99.3896 31.1699C99.0381 31.2676 98.7256 31.3799 98.4521 31.5068C97.7783 31.8193 97.4414 32.1465 97.4414 32.4883C98.2227 32.5566 98.8086 32.5908 99.1992 32.5908C100.283 32.5908 101.016 32.498 101.396 32.3125C101.631 32.2148 101.748 32.0928 101.748 31.9463C101.748 31.7705 101.636 31.6045 101.411 31.4482ZM105.146 36.7656C104.746 36.9316 104.478 37.0146 104.341 37.0146C104.214 37.0146 104.126 37 104.077 36.9707C104.028 36.9414 103.975 36.873 103.916 36.7656C103.916 36.4434 103.926 36.0381 103.945 35.5498C103.975 35.0615 103.999 34.5391 104.019 33.9824C104.038 33.4258 104.048 32.8643 104.048 32.2979C104.048 31.7314 104.019 31.2139 103.96 30.7451C103.96 30.4326 104.17 30.2764 104.59 30.2764C104.688 30.2764 104.761 30.4521 104.81 30.8037C104.868 31.1553 104.907 31.4287 104.927 31.624C104.956 31.8193 104.98 31.9609 105 32.0488C105.254 31.5898 105.757 31.2285 106.509 30.9648C106.909 30.8379 107.285 30.7744 107.637 30.7744C107.988 30.7744 108.296 30.8184 108.56 30.9062C108.833 30.9844 109.062 31.1357 109.248 31.3604C109.443 31.5752 109.541 31.8633 109.541 32.2246C109.795 31.7461 110.366 31.3164 111.255 30.9355C112.065 30.5742 112.793 30.3936 113.438 30.3936C114.365 30.3936 114.819 30.7451 114.8 31.4482L115.107 36.8975C115.107 36.9463 114.966 36.9805 114.683 37C114.136 37.0391 113.862 36.9902 113.862 36.8535C113.853 36.6582 113.848 36.4629 113.848 36.2676L113.921 33.9092C113.921 32.8057 113.813 31.9316 113.599 31.2871C112.954 31.3359 112.456 31.4434 112.104 31.6094C111.763 31.7656 111.46 31.9658 111.196 32.21C110.933 32.4443 110.698 32.7617 110.493 33.1621C110.034 34.0605 109.805 35.252 109.805 36.7363C109.746 36.9414 109.556 37.0439 109.233 37.0439C109.019 37.0439 108.843 37.0098 108.706 36.9414C108.569 36.8633 108.516 36.7949 108.545 36.7363C108.73 35.7012 108.823 34.8955 108.823 34.3193C108.823 33.8604 108.774 33.4258 108.677 33.0156C108.589 32.5957 108.477 32.1172 108.34 31.5801C106.934 31.5801 105.986 32.1416 105.498 33.2646C105.283 33.7627 105.161 34.2314 105.132 34.6709C105.112 35.1006 105.103 35.4717 105.103 35.7842C105.103 36.0869 105.117 36.4141 105.146 36.7656Z" fill="#090303"/>
</svg>
